<svg width="100%" viewBox="0 0 680 620" xmlns="http://www.w3.org/2000/svg">
<title>Receipt Intelligence System — architecture and data flow</title>

<defs>
  <marker id="arrow" viewBox="0 0 10 10" refX="8" refY="5" markerWidth="6" markerHeight="6" orient="auto-start-reverse">
    <path d="M2 1L8 5L2 9" fill="none" stroke="#888" stroke-width="1.5" stroke-linecap="round" stroke-linejoin="round"/>
  </marker>
  <style>
    text { font-family: -apple-system, BlinkMacSystemFont, "Segoe UI", sans-serif; }
    .th  { font-size: 14px; font-weight: 500; fill: #1a1a1a; }
    .ts  { font-size: 12px; font-weight: 400; fill: #555; }
    .arr { stroke: #888; stroke-width: 1; fill: none; }
  </style>
</defs>

<!-- Flutter Web -->
<rect x="30" y="30" width="160" height="380" rx="12" fill="#E1F5EE" stroke="#0F6E56" stroke-width="0.5"/>
<text class="th" x="110" y="58" text-anchor="middle" fill="#085041">Flutter web</text>
<text class="ts" x="110" y="74" text-anchor="middle" fill="#0F6E56">flutter_bloc · Dio</text>

<rect x="46" y="92"  width="128" height="52" rx="6" fill="#9FE1CB" stroke="#0F6E56" stroke-width="0.5"/>
<text class="th" x="110" y="114" text-anchor="middle" fill="#04342C">Receipt list</text>
<text class="ts" x="110" y="130" text-anchor="middle" fill="#085041">ReceiptListBloc</text>

<rect x="46" y="162" width="128" height="52" rx="6" fill="#9FE1CB" stroke="#0F6E56" stroke-width="0.5"/>
<text class="th" x="110" y="184" text-anchor="middle" fill="#04342C">Upload screen</text>
<text class="ts" x="110" y="200" text-anchor="middle" fill="#085041">UploadBloc</text>

<rect x="46" y="232" width="128" height="52" rx="6" fill="#9FE1CB" stroke="#0F6E56" stroke-width="0.5"/>
<text class="th" x="110" y="254" text-anchor="middle" fill="#04342C">Detail screen</text>
<text class="ts" x="110" y="270" text-anchor="middle" fill="#085041">ReceiptDetailBloc</text>

<rect x="46" y="302" width="128" height="44" rx="6" fill="#9FE1CB" stroke="#0F6E56" stroke-width="0.5"/>
<text class="th" x="110" y="320" text-anchor="middle" fill="#04342C">Domain layer</text>
<text class="ts" x="110" y="336" text-anchor="middle" fill="#085041">Entities · Repository</text>

<rect x="46" y="364" width="128" height="44" rx="6" fill="#9FE1CB" stroke="#0F6E56" stroke-width="0.5"/>
<text class="th" x="110" y="382" text-anchor="middle" fill="#04342C">Data layer</text>
<text class="ts" x="110" y="398" text-anchor="middle" fill="#085041">Datasource · Models</text>

<!-- HTTP arrows -->
<line x1="174" y1="118" x2="250" y2="118" class="arr" marker-end="url(#arrow)"/>
<text class="ts" x="212" y="113" text-anchor="middle">GET</text>
<line x1="174" y1="188" x2="250" y2="188" class="arr" marker-end="url(#arrow)"/>
<text class="ts" x="212" y="183" text-anchor="middle">POST</text>
<line x1="174" y1="258" x2="250" y2="258" class="arr" marker-end="url(#arrow)"/>
<text class="ts" x="212" y="253" text-anchor="middle">GET · PATCH</text>

<!-- Express API -->
<rect x="250" y="30" width="160" height="380" rx="12" fill="#EEEDFE" stroke="#534AB7" stroke-width="0.5"/>
<text class="th" x="330" y="58" text-anchor="middle" fill="#26215C">Express API</text>
<text class="ts" x="330" y="74" text-anchor="middle" fill="#534AB7">Node.js · TypeScript</text>

<rect x="266" y="92"  width="128" height="44" rx="6" fill="#CECBF6" stroke="#534AB7" stroke-width="0.5"/>
<text class="th" x="330" y="110" text-anchor="middle" fill="#26215C">Routes</text>
<text class="ts" x="330" y="126" text-anchor="middle" fill="#3C3489">receipt.routes.ts</text>

<rect x="266" y="154" width="128" height="44" rx="6" fill="#CECBF6" stroke="#534AB7" stroke-width="0.5"/>
<text class="th" x="330" y="172" text-anchor="middle" fill="#26215C">Controller</text>
<text class="ts" x="330" y="188" text-anchor="middle" fill="#3C3489">receipt.controller.ts</text>

<rect x="266" y="216" width="128" height="44" rx="6" fill="#CECBF6" stroke="#534AB7" stroke-width="0.5"/>
<text class="th" x="330" y="234" text-anchor="middle" fill="#26215C">Middleware</text>
<text class="ts" x="330" y="250" text-anchor="middle" fill="#3C3489">multer · validation</text>

<rect x="266" y="278" width="128" height="44" rx="6" fill="#CECBF6" stroke="#534AB7" stroke-width="0.5"/>
<text class="th" x="330" y="296" text-anchor="middle" fill="#26215C">Repository</text>
<text class="ts" x="330" y="312" text-anchor="middle" fill="#3C3489">Prisma · SQLite</text>

<line x1="330" y1="136" x2="330" y2="152" class="arr" marker-end="url(#arrow)"/>
<line x1="330" y1="198" x2="330" y2="214" class="arr" marker-end="url(#arrow)"/>
<line x1="330" y1="260" x2="330" y2="276" class="arr" marker-end="url(#arrow)"/>

<!-- SQLite -->
<rect x="250" y="430" width="160" height="60" rx="8" fill="#D3D1C7" stroke="#5F5E5A" stroke-width="0.5"/>
<text class="th" x="330" y="454" text-anchor="middle" fill="#2C2C2A">SQLite · Prisma</text>
<text class="ts" x="330" y="472" text-anchor="middle" fill="#444441">Receipt · LineItem</text>

<line x1="330" y1="322" x2="330" y2="428" class="arr" marker-end="url(#arrow)"/>
<path d="M250 460 Q180 460 174 430 L174 270" class="arr" stroke-dasharray="4 3" marker-end="url(#arrow)"/>
<text class="ts" x="192" y="474" text-anchor="middle">JSON</text>

<!-- Pipeline arrows -->
<line x1="410" y1="188" x2="468" y2="260" class="arr" marker-end="url(#arrow)"/>
<line x1="410" y1="188" x2="468" y2="380" class="arr" marker-end="url(#arrow)"/>
<line x1="410" y1="188" x2="468" y2="470" class="arr" marker-end="url(#arrow)"/>

<!-- Services -->
<rect x="468" y="30" width="180" height="560" rx="12" fill="#FAEEDA" stroke="#854F0B" stroke-width="0.5"/>
<text class="th" x="558" y="58" text-anchor="middle" fill="#412402">Services</text>
<text class="ts" x="558" y="74" text-anchor="middle" fill="#854F0B">Processing pipeline</text>

<rect x="484" y="92"  width="148" height="80" rx="6" fill="#FAC775" stroke="#854F0B" stroke-width="0.5"/>
<text class="th" x="558" y="116" text-anchor="middle" fill="#412402">OCR service</text>
<text class="ts" x="558" y="134" text-anchor="middle" fill="#633806">sharp preprocessing</text>
<text class="ts" x="558" y="150" text-anchor="middle" fill="#633806">Tesseract.js · deu+eng</text>
<text class="ts" x="558" y="166" text-anchor="middle" fill="#633806">raw text output</text>

<rect x="484" y="200" width="148" height="96" rx="6" fill="#FAC775" stroke="#854F0B" stroke-width="0.5"/>
<text class="th" x="558" y="224" text-anchor="middle" fill="#412402">Parsing service</text>
<text class="ts" x="558" y="242" text-anchor="middle" fill="#633806">vendor · date · total</text>
<text class="ts" x="558" y="258" text-anchor="middle" fill="#633806">line items via regex</text>
<text class="ts" x="558" y="274" text-anchor="middle" fill="#633806">German price format</text>

<rect x="484" y="316" width="148" height="80" rx="6" fill="#FAC775" stroke="#854F0B" stroke-width="0.5"/>
<text class="th" x="558" y="340" text-anchor="middle" fill="#412402">Categorisation</text>
<text class="ts" x="558" y="358" text-anchor="middle" fill="#633806">keyword matching</text>
<text class="ts" x="558" y="374" text-anchor="middle" fill="#633806">6 categories</text>

<rect x="484" y="416" width="148" height="64" rx="6" fill="#FAC775" stroke="#854F0B" stroke-width="0.5"/>
<text class="th" x="558" y="440" text-anchor="middle" fill="#412402">Duplicate check</text>
<text class="ts" x="558" y="458" text-anchor="middle" fill="#633806">SHA-256 image hash</text>

<line x1="558" y1="172" x2="558" y2="198" class="arr" marker-end="url(#arrow)"/>
<line x1="558" y1="296" x2="558" y2="314" class="arr" marker-end="url(#arrow)"/>

<!-- Test badge -->
<rect x="266" y="510" width="128" height="28" rx="6" fill="none" stroke="#888" stroke-width="0.5" stroke-dasharray="3 3"/>
<text class="ts" x="330" y="528" text-anchor="middle">15 backend · 7 Flutter tests</text>

<!-- Async note -->
<rect x="266" y="546" width="128" height="28" rx="6" fill="none" stroke="#888" stroke-width="0.5" stroke-dasharray="3 3"/>
<text class="ts" x="330" y="564" text-anchor="middle">async: PENDING → DONE</text>

</svg>
